<svg version="1.2" xmlns="http://www.w3.org/2000/svg" viewBox="0 0 4000 4000" width="4000" height="4000">
	<style>
		.s0 { fill: #634339 } 
		.s1 { fill: #512717 } 
		.s2 { fill: #ffe8d2 } 
		.s3 { fill: #efc7a5 } 
		.s4 { fill: #593930 } 
		.s5 { fill: #ffffff } 
		.s6 { fill: #e5e5e5 } 
		.s7 { fill: #fcc5e5 } 
		.s8 { fill: #3a3a3a } 
		.s9 { fill: #ffb6b8 } 
		.s10 { fill: #f98f96 } 
		.s11 { fill: none;stroke: #512717;stroke-miterlimit:10;stroke-width: 40 } 
	</style>
	<g id="_Artboards_">
	</g>
	<g id="Layer 1">
		<g id="&lt;Group&gt;">
			<g id="&lt;Group&gt;">
			</g>
			<g id="&lt;Group&gt;">
				<g id="&lt;Group&gt;">
					<g id="&lt;Group&gt;">
						<g id="&lt;Group&gt;">
							<path id="&lt;Path&gt;" class="s0" d="m2876.22 2566.33l-31.22 63.67c30-30 70 0 50 50-35 65-111.6 115.74-175 90l-95-100 40.47-283.04c91.58 37.03 164.45 94.02 210.75 179.37z"/>
						</g>
						<g id="&lt;Group&gt;">
							<path id="&lt;Compound Path&gt;" fill-rule="evenodd" class="s1" d="m2756.17 2792.01c-14.06 0-28.11-2.55-41.81-8.11-1.98-0.81-3.76-2.02-5.23-3.57l-95-100c-3.16-3.32-4.63-7.91-3.98-12.45l40.47-283.05c0.66-4.56 3.37-8.57 7.37-10.87 4-2.3 8.83-2.64 13.11-0.91 101.15 40.9 172.56 101.79 218.31 186.13 2.32 4.27 2.42 9.4 0.28 13.76l-14.83 30.24c6.59 0.66 13.01 2.91 18.91 6.8 17.88 11.79 29.5 39.74 15.16 75.59q-0.32 0.79-0.72 1.54c-30.94 57.46-91.43 104.89-152.04 104.9zm-27.63-34.8c55.62 20.06 122.03-27.03 152.84-83.55 7.6-19.65 3.24-33.77-4.13-38.63-6.07-4-14.15-1.92-21.64 5.57-5.18 5.2-13.36 5.87-19.33 1.6-5.97-4.26-7.98-12.22-4.75-18.8l27.77-56.63c-39.65-69.62-99.28-121.61-181.74-158.38l-36.68 256.54z"/>
						</g>
						<g id="&lt;Group&gt;">
							<path id="&lt;Path&gt;" class="s1" d="m2867.93 2617.29q-1.96 4.95-4.49 9.6c-1.57 3.15-3.36 6.19-5.26 9.18-1.92 2.97-3.4 6.18-6.08 8.75-1.28 1.31-2.64 2.59-4 3.86-1.22 1.35-2.54 2.65-3.6 4.08l-13.45 16.81c-4.54 5.57-8.91 11.24-13.2 16.94-1.08 1.45-3.13 1.74-4.57 0.65-1.12-0.84-1.55-2.26-1.18-3.53l0.05-0.14 12.28-41.39c1.06-3.43 1.93-6.96 3.08-10.34 1.16-3.37 2.72-6.54 4.21-9.74 2.9-6.44 6.18-12.69 9.71-18.79 4.15-7.17 13.32-9.62 20.48-5.47 6.53 3.77 9.14 11.71 6.43 18.51z"/>
						</g>
						<g id="&lt;Group&gt;">
							<path id="&lt;Path&gt;" class="s2" d="m2941.5 2395.2c-18.85 72.5-45.35 139.6-81.5 199.8-38.6-79.4-99.05-126.3-175-150l-175.4-521.3-4.6-13.7q5.77 1.94 11.55 3.95c60.35 20.8 120 47.2 174.95 78.35 105.25 59.5 193.05 136.15 234.8 223.7 6.8 14.3 12.15 29.05 16 44.2 11.4 43.9 10.8 90.5-0.8 135z"/>
						</g>
						<g id="&lt;Group&gt;">
							<path id="&lt;Path&gt;" class="s3" d="m2941.5 2395.2c-18.85 72.5-45.35 139.6-81.5 199.8-38.6-79.4-99.05-126.3-175-150l-175.4-521.3c2.15-3.35 4.5-6.6 6.95-9.75 60.35 20.8 120 47.2 174.95 78.35-2.1 8-3.55 16.25-4.45 24.35-9.45 81.9 17.9 167.35 73.1 228.6 7.6 8.45 16.2 17.55 16.55 28.85 0.25 7.05-2.75 13.7-5.7 20.1-15.6 33.75-30.95 70.05-25.65 106.85 6 41.7 37 74.7 66.5 104.75 4 4.05 8.65 8.35 14.25 8.2 4.05-0.15 7.6-2.6 10.75-5.15 16.7-13.35 29.65-30.75 41.05-48.85 37.65-59.85 59.75-129.3 64.4-199.8 11.4 43.9 10.8 90.5-0.8 135z"/>
						</g>
						<g id="&lt;Group&gt;">
							<path id="&lt;Compound Path&gt;" fill-rule="evenodd" class="s1" d="m2860 2610q-0.33 0-0.66-0.02c-5.5-0.24-10.42-3.47-12.83-8.42-34.9-71.75-89.19-118.28-165.98-142.24-4.59-1.44-8.21-4.98-9.75-9.54l-180-535c-1.81-5.39-0.42-11.34 3.6-15.37 4.02-4.03 9.98-5.44 15.36-3.64 208.84 69.61 369.62 186.91 430.09 313.76 27.32 57.35 33.08 124.62 16.21 189.43-19.93 76.52-47.91 145.08-83.18 203.77-2.72 4.52-7.61 7.27-12.86 7.27zm-163.19-176.94c71.35 23.98 126.24 67.96 163.59 131.01 27.62-50.89 49.98-108.84 66.6-172.67 15.1-57.98 10.04-117.99-14.25-168.96-53.44-112.11-199.05-220.97-383.76-288.2z"/>
						</g>
						<g id="&lt;Group&gt;">
							<path id="&lt;Path&gt;" class="s1" d="m2670.01 2444.39c0.34-18.83 2.77-37.8 7.57-56.25 4.79-18.45 11.94-36.34 21.19-52.98 9.32-16.59 20.43-32.12 33.42-45.71 13.03-13.52 27.78-25.2 44.15-33.96 2.88-1.54 6.46-0.45 8 2.43 1.17 2.18 0.83 4.75-0.65 6.55l-0.03 0.04c-11.41 13.82-22.64 27.01-32.78 40.79-10.19 13.72-19.34 27.98-26.52 43.18-7.28 15.12-12.85 30.96-16.81 47.22-3.97 16.28-6.37 32.97-7.56 49.91l-0.01 0.1c-0.58 8.27-7.75 14.5-16.02 13.92-7.99-0.56-14.08-7.32-13.95-15.24z"/>
						</g>
					</g>
					<g id="&lt;Group&gt;">
						<g id="&lt;Group&gt;">
							<path id="&lt;Path&gt;" class="s2" d="m798.71 1792.52c150.12 187.06 341 318.63 568.79 399.98l137.5-267.5c-182.36-79.85-335.29-191.33-435.78-357.94z"/>
						</g>
						<g id="&lt;Group&gt;">
							<path id="&lt;Path&gt;" class="s3" d="m1433.85 1891.38l-8.05 12.48c-68.8 106.77-212.53 134.51-316.48 61.51-91.86-64.5-173.76-140.11-245.22-227.35l-65.39 54.5c150.12 187.06 341 318.63 568.79 399.98l137.5-267.5q-36.4-15.93-71.15-33.62z"/>
						</g>
						<g id="&lt;Group&gt;">
							<path id="&lt;Compound Path&gt;" fill-rule="evenodd" class="s1" d="m1367.5 2207.5c-1.68 0-3.38-0.28-5.04-0.87-233.14-83.26-426.75-219.43-575.45-404.72-5.11-6.38-4.18-15.68 2.1-20.91l270.5-225.46c3.36-2.8 7.79-4 12.09-3.27 4.32 0.72 8.1 3.3 10.36 7.05 90.53 150.07 230.84 265.2 428.96 351.94 3.79 1.66 6.73 4.81 8.11 8.71 1.39 3.9 1.11 8.21-0.79 11.89l-137.5 267.5c-2.63 5.12-7.85 8.14-13.34 8.14zm-547.81-412.94c141.25 171.84 322.98 299.37 540.51 379.34l124.21-241.64c-189.89-85.66-327.19-197.96-418.86-342.61z"/>
						</g>
						<g id="&lt;Group&gt;">
							<path id="&lt;Path&gt;" class="s0" d="m856.52 1839.46c112.88 8.72 193.17-90.3 213.02-200.86 7.49-41.76 1.15-84.99-17.19-123.24-31.6-65.88-71.3-112.69-125.35-125.68-10.87-2.61-22.24 0.77-30.46 8.33-30.98 28.44-50.22 64.06-56.14 107.83-14.04-27.36-32.85-47.04-55.06-61.24-8.54-5.45-19.7-4.02-26.72 3.28-88.69 92.41-43.7 277.85 78.92 383.81 5.29 4.58 12.01 7.24 18.98 7.77z"/>
						</g>
						<g id="&lt;Group&gt;">
							<g id="&lt;Group&gt;">
								<path id="&lt;Path&gt;" class="s4" d="m875.4 1460.84c3.06-22.6 9.69-43.01 19.63-61.39-12.96 12.15-23.82 25.57-32.44 40.38 4.61 6.46 8.91 13.41 12.81 21.01z"/>
							</g>
							<g id="&lt;Group&gt;">
								<path id="&lt;Path&gt;" class="s4" d="m891.52 1794.46c-6.97-0.54-13.69-3.19-18.98-7.77-106.78-92.27-154.65-244.79-106.67-343.69-2.66 1.11-5.15 2.7-7.25 4.88-88.69 92.41-43.7 277.85 78.92 383.81 5.29 4.58 12.01 7.23 18.98 7.77 75.9 5.87 137.02-37.01 174.98-99.32-36.49 36.64-84.25 58.63-139.98 54.32z"/>
							</g>
						</g>
						<g id="&lt;Group&gt;">
							<path id="&lt;Compound Path&gt;" fill-rule="evenodd" class="s1" d="m870.31 1855q-7.38 0-14.94-0.58c-10.25-0.79-20.06-4.83-27.64-11.37-76.06-65.73-125.96-163.53-130.24-255.23-2.85-61.08 14.55-113.06 50.31-150.32 11.95-12.46 31.13-14.78 45.61-5.54 15.38 9.83 28.84 21.88 40.26 36.03 10.14-30.98 27.79-58.14 52.72-81.03 12.13-11.15 28.63-15.59 44.11-11.86 54.16 13.01 98.44 56.76 135.37 133.77 19.8 41.28 26.34 88.29 18.43 132.38-19.48 108.52-98.63 213.75-213.99 213.75zm-12.63-30.49c105.69 8.19 179.16-88.68 197.09-188.57 6.81-37.93 1.15-78.45-15.95-114.1-32.78-68.35-70.5-106.81-115.33-117.57-5.77-1.39-12.04 0.4-16.81 4.79-29.24 26.84-46.06 59.16-51.41 98.79-0.88 6.5-5.87 11.67-12.33 12.78-6.47 1.1-12.89-2.11-15.88-7.94-12.14-23.65-28.43-41.79-49.8-55.45-2.44-1.56-5.73-1.14-7.82 1.03-29.92 31.18-44.44 75.49-41.98 128.15 3.9 83.76 49.84 173.4 119.89 233.92 2.75 2.39 6.43 3.87 10.33 4.17z"/>
						</g>
					</g>
					<g id="&lt;Group&gt;">
						<g id="&lt;Group&gt;">
							<path id="&lt;Path&gt;" class="s2" d="m1825 3025c-65 245-25 465-172.35 564.7l-15.6-11.6-212.05-158.1 64-346.25 21-113.75z"/>
						</g>
						<g id="&lt;Group&gt;">
							<path id="&lt;Path&gt;" class="s3" d="m1825 3025c-65 245-25 465-172.35 564.7l-15.6-11.6c14.2-17.15 27.95-34.65 38.45-54.25 31.55-58.75 30.75-128.85 28.7-195.5-1.5-49.85-5.5-104.95-41.15-139.8-25.8-25.3-62.95-34.25-95.05-50.8-30.55-15.7-56.3-38.2-79-64l21-113.75z"/>
						</g>
						<g id="&lt;Group&gt;">
							<path id="&lt;Compound Path&gt;" fill-rule="evenodd" class="s1" d="m1652.66 3604.71c-3.16 0-6.31-0.99-8.97-2.97l-227.65-169.71c-4.58-3.42-6.82-9.14-5.79-14.76l85-460c0.73-3.96 3.03-7.46 6.38-9.71 3.35-2.26 7.46-3.07 11.4-2.25l315 65c4.04 0.83 7.56 3.29 9.73 6.8 2.17 3.5 2.8 7.75 1.74 11.74-21.49 81-31.18 157.76-40.55 232-18.36 145.48-34.22 271.13-137.88 341.28-2.55 1.72-5.48 2.58-8.41 2.58zm-211.21-191.16l211.41 157.6c84.73-63.68 98.74-174.69 116.33-314.06 8.49-67.28 18.04-142.98 37.36-220.58l-284.58-58.73z"/>
						</g>
						<g id="&lt;Group&gt;">
							<g id="&lt;Group&gt;">
								<path id="&lt;Path&gt;" class="s0" d="m1296.22 3620.26c-19.95 1.31-37.27-3.23-51.22-15.26 15-47.5 40.25-89.46 71.63-122.94 15.73-16.79 51.06-52.35 108.37-72.06 113.89-39.17 216.06 19.18 235 30 16.25 9.28 30.23 19.25 42.03 28.88 20.31 16.57 23.23 46.53 6.55 66.75-26.42 32.02-68.33 72.09-131.08 95.62-70 26.25-155 33.75-247.5 18.75 0.66-15.04 5.86-30.04 15-45l-6.41 3.21c-13.25 6.62-27.59 11.08-42.37 12.05z"/>
							</g>
							<g id="&lt;Group&gt;">
								<path id="&lt;Path&gt;" class="s4" d="m1357.14 3600c0.76-15.04 6.69-30.04 17.15-45l-7.34 3.21c-15.13 6.62-31.52 11.08-48.41 12.05-20.88 1.2-39.19-2.58-54.37-12.44-7.48 15-13.98 30.73-19.17 47.18 13.94 12.03 31.26 16.57 51.22 15.26 14.78-0.97 29.12-5.43 42.36-12.05l6.42-3.21c-9.14 14.96-14.34 29.96-15 45 149.52 24.25 279.42-10.32 358.07-87.81-87.64 41.11-202.98 55.96-330.93 37.81z"/>
							</g>
							<g id="&lt;Group&gt;">
								<path id="&lt;Compound Path&gt;" fill-rule="evenodd" class="s1" d="m1422.19 3672.63c-30.71 0-62.37-2.6-94.59-7.82-7.51-1.22-12.92-7.87-12.58-15.47q0.37-8.6 2.42-17.3-10.15 2.53-20.23 3.19-0.01 0-0.01 0c-24.7 1.63-45.6-4.73-62-18.87-4.53-3.92-6.31-10.16-4.5-15.88 15.16-48.02 41.09-92.52 74.99-128.68 12.55-13.4 50.77-54.19 114.45-75.99 116.45-39.87 222.68 15.78 262.95 41.55 11.18 7.17 22.08 15.13 32.4 23.68 23.92 19.84 27.5 55.75 7.99 80.04-39.23 48.85-86.57 83.91-140.71 104.21-48.41 18.16-102.82 27.34-160.58 27.34zm-75.17-35.25c82.23 11.27 159.81 4.35 225.21-20.18 49.04-18.38 92.05-50.31 127.86-94.9 9.32-11.6 7.63-28.72-3.76-38.17-9.36-7.76-19.26-15-29.41-21.5-36.61-23.42-132.98-74.07-237.06-38.44-56.62 19.39-90.99 56.07-102.29 68.13-28.4 30.3-50.66 67.07-64.8 106.88 8.95 4.93 19.68 6.95 32.47 6.09 11.94-0.78 24.27-4.31 36.64-10.5l6.41-3.21c5.98-2.99 13.23-1.66 17.76 3.27 4.53 4.93 5.24 12.26 1.75 17.97-5.1 8.35-8.71 16.56-10.78 24.56zm-50.8-17.12h0.05z"/>
							</g>
							<g id="&lt;Group&gt;">
								<path id="&lt;Path&gt;" class="s1" d="m1327.72 3605.51c14.15-16.39 26.36-36.67 40.2-56.11 13.76-19.47 29.6-38.59 49.39-52.65 1.9-1.35 4.54-0.9 5.89 1 1.23 1.73 0.96 4.07-0.51 5.5-16.36 15.94-28.06 35.54-38.31 56.07-10.4 20.55-19.11 42.35-32.45 63.92-4.37 7.07-13.64 9.27-20.71 4.91-7.07-4.37-9.27-13.64-4.91-20.71 0.4-0.66 0.93-1.36 1.41-1.93z"/>
							</g>
						</g>
					</g>
					<g id="&lt;Group&gt;">
						<g id="&lt;Group&gt;">
							<path id="&lt;Path&gt;" class="s2" d="m2195 3025c65 245 25 465 172.35 564.7l15.6-11.6 212.05-158.1-64-346.25-21-113.75z"/>
						</g>
						<g id="&lt;Group&gt;">
							<path id="&lt;Path&gt;" class="s3" d="m2195 3025c65 245 25 465 172.35 564.7l15.6-11.6c-14.2-17.15-27.95-34.65-38.45-54.25-31.55-58.75-30.75-128.85-28.7-195.5 1.5-49.85 5.5-104.95 41.15-139.8 25.8-25.3 62.95-34.25 95.05-50.8 30.55-15.7 56.3-38.2 79-64l-21-113.75z"/>
						</g>
						<g id="&lt;Group&gt;">
							<path id="&lt;Compound Path&gt;" fill-rule="evenodd" class="s1" d="m2367.34 3604.71c-2.93 0-5.86-0.86-8.41-2.58-103.66-70.15-119.51-195.8-137.88-341.28-9.37-74.23-19.06-150.99-40.55-232-1.06-3.99-0.43-8.24 1.74-11.74 2.18-3.51 5.69-5.97 9.73-6.8l315-65c3.95-0.81 8.06-0.01 11.41 2.25 3.34 2.25 5.64 5.75 6.37 9.71l85 460c1.04 5.62-1.2 11.34-5.78 14.76l-227.66 169.71c-2.66 1.98-5.81 2.97-8.97 2.97zm-153.89-568.2c19.32 77.61 28.88 153.3 37.37 220.58 17.58 139.37 31.59 250.38 116.32 314.06l211.42-157.6-80.53-435.77z"/>
						</g>
						<g id="&lt;Group&gt;">
							<g id="&lt;Group&gt;">
								<path id="&lt;Path&gt;" class="s0" d="m2723.78 3620.26c19.95 1.31 37.27-3.23 51.22-15.26-15-47.5-40.25-89.46-71.63-122.94-15.73-16.79-51.06-52.35-108.37-72.06-113.89-39.17-216.06 19.18-235 30-16.25 9.28-30.23 19.25-42.03 28.88-20.31 16.57-23.23 46.53-6.55 66.75 26.42 32.02 68.33 72.09 131.08 95.62 70 26.25 155 33.75 247.5 18.75-0.66-15.04-5.86-30.04-15-45l6.41 3.21c13.25 6.62 27.59 11.08 42.37 12.05z"/>
							</g>
							<g id="&lt;Group&gt;">
								<path id="&lt;Path&gt;" class="s4" d="m2662.86 3600c-0.76-15.04-6.69-30.04-17.15-45l7.34 3.21c15.13 6.62 31.52 11.08 48.41 12.05 20.88 1.2 39.19-2.58 54.37-12.44 7.48 15 13.98 30.73 19.17 47.18-13.94 12.03-31.26 16.57-51.22 15.26-14.78-0.97-29.12-5.43-42.36-12.05l-6.42-3.21c9.14 14.96 14.34 29.96 15 45-149.52 24.25-279.42-10.32-358.07-87.81 87.64 41.11 202.98 55.96 330.93 37.81z"/>
							</g>
							<g id="&lt;Group&gt;">
								<path id="&lt;Compound Path&gt;" fill-rule="evenodd" class="s1" d="m2597.81 3672.63c-57.76 0-112.16-9.18-160.58-27.34-54.14-20.3-101.49-55.36-140.71-104.21-19.51-24.29-15.92-60.2 8-80.04 10.29-8.53 21.18-16.49 32.4-23.67 40.26-25.78 146.5-81.43 262.94-41.56 63.66 21.8 101.89 62.59 114.46 75.99 33.89 36.17 59.82 80.67 74.98 128.68 1.81 5.72 0.04 11.96-4.5 15.88-16.4 14.15-37.3 20.5-62.01 18.87q-10.08-0.66-20.23-3.19 2.04 8.7 2.43 17.3c0.33 7.6-5.08 14.25-12.59 15.47-32.21 5.22-63.88 7.82-94.59 7.82zm-82.44-260.76c-73.19 0-134.7 33.11-162.28 50.76-10.18 6.52-20.08 13.75-29.42 21.5-11.39 9.45-13.07 26.57-3.76 38.17 35.8 44.59 78.82 76.52 127.86 94.9 65.4 24.53 142.97 31.44 225.21 20.18-2.08-8-5.68-16.21-10.78-24.56-3.49-5.71-2.77-13.04 1.76-17.97 4.52-4.93 11.76-6.26 17.76-3.27l6.41 3.21c12.36 6.19 24.69 9.72 36.63 10.5 12.81 0.85 23.52-1.15 32.48-6.09-14.14-39.8-36.41-76.57-64.81-106.88-11.3-12.06-45.69-48.75-102.29-68.13-25.65-8.78-50.84-12.32-74.77-12.32z"/>
							</g>
							<g id="&lt;Group&gt;">
								<path id="&lt;Path&gt;" class="s1" d="m2668.07 3623.24c-13.34-21.57-22.05-43.37-32.45-63.92-10.25-20.53-21.95-40.13-38.31-56.07-1.68-1.63-1.73-4.3-0.11-5.98 1.47-1.53 3.82-1.7 5.49-0.52 19.79 14.06 35.63 33.19 49.39 52.65 13.84 19.44 26.05 39.72 40.2 56.11 5.43 6.29 4.73 15.79-1.57 21.22-6.29 5.43-15.79 4.73-21.22-1.56-0.51-0.59-1.02-1.3-1.42-1.93z"/>
							</g>
						</g>
					</g>
					<g id="&lt;Group&gt;">
						<g id="&lt;Group&gt;">
							<path id="&lt;Path&gt;" class="s5" d="m2554.76 2091.82c101.69 118.2 60.16 247.12 60.16 247.12 132.89 171.96 13.55 309.86 13.55 309.86 41.76 79.7 47.43 210.43-54.62 277.59-12.93 61.71-39.93 103.88-96.96 112.77l-196.01 45.98c-44.05 60.63-110.4 65.57-169.13 40.94-37.38 22.04-65.78 33.92-102.86 33.92h-0.27c-37.08 0-65.48-11.88-102.86-33.92-58.73 24.63-125.08 19.69-169.13-40.94l-195.98-45.98c-57.03-8.89-84.04-51.06-96.96-112.77-102.06-67.16-96.38-197.89-54.62-277.59 0 0-119.35-137.9 13.55-309.86 0 0-41.54-128.92 60.15-247.12 0 0 109.26-446.82 545.99-446.82 436.72 0 546 446.82 546 446.82z"/>
						</g>
						<g id="&lt;Group&gt;">
							<path id="&lt;Path&gt;" class="s5" d="m2700.05 2648.85c32.05 54.75 45.05 133.6 13.1 199.35-2.6 5.3-5.45 10.45-8.6 15.55-1.05 1.7-2.15 3.35-3.25 5.05q0-0.01 0 0.05c-5.65 8.35-12.1 16.4-19.45 24.05v0.05c-2.95 3.05-6.05 6.1-9.3 9-9.8 8.8-20.9 16.95-33.45 24.4-0.05 0.2-0.05 0.4-0.1 0.6-1.5 11.2-8.9 55.05-45.9 85.85-0.85 0.8-1.8 1.5-2.7 2.25q-0.38 0.31-0.75 0.55c-2.65 2.1-5.4 4.05-8.3 5.9-1.8 1.15-3.6 2.2-5.5 3.3-18.35 10.45-35.55 13.9-45.45 15.15-0.15 0-0.25 0.05-0.4 0.05-13.5 14.8-37.8 37.5-73.65 52.9q0.01 0-0.05 0-5.46 2.4-11.3 4.5c-78.7 28.35-147.75-2.2-165-10.45-5.1 9.25-21.9 37-55.85 50.6-31.7 12.7-61.2 6.25-80.05-1.15q-0.08-0.06-0.15-0.05c-11-4.35-18.35-9-20.3-10.25q-2.61 1.35-5.15 2.7c-36.9 19.1-66.35 29.9-102.75 31.05q-3.39 0.15-6.85 0.15h-0.3q-3.46 0-6.85-0.15c-36.4-1.15-65.85-11.95-102.75-31.05q-2.54-1.35-5.15-2.7c-2.15 1.4-9.75 6.1-21 10.4-18.9 7.25-48.15 13.45-79.5 1.05-30.7-12.15-47.3-35.7-53.35-45.35-18.4 4.85-51.85 11.45-93.2 6.8-11.7-1.25-24-3.45-36.8-6.8-48.05-12.8-81.75-36.9-100-52.2-9.85 0.75-46.75 2.3-81.5-23.95q-0.74-0.52-1.4-1.05c-34.95-27.2-44.9-65.5-47.7-81.95q-0.09-0.75-0.25-1.5c-0.15-1.15-0.35-2.1-0.45-3-0.05-0.45-0.15-0.9-0.2-1.3-0.05-0.3-0.05-0.6-0.1-0.85v-0.05c-12.8-7.55-24.15-15.95-34.05-24.95q-2.11-1.95-4.15-3.9c-45.25-43.85-58.75-101.8-52.95-156.05q0.84-7.8 2.2-15.45c0.45-2.55 0.9-5.1 1.45-7.6 1.1-5.05 2.3-10.05 3.65-14.95v-0.05c1.4-4.9 2.9-9.75 4.55-14.5q0 0.01 0-0.05c5-14.25 11.25-27.75 18.4-40 0 0 0 0-0.05-0.05 0 0-9.65-9.95-20.75-27.9-1.95-3-3.85-6.25-5.75-9.7-2.05-3.6-4.1-7.45-6.05-11.5q-1.95-3.91-3.75-8.05-1.88-4.19-3.6-8.6c-22.3-56.55-30.7-144.65 55.05-244.1 0 0-46.35-128.95 67.1-247.15-6.45-25.15-12.2-63.9 0.3-105.5 4.2-14.05 9.3-23.55 11.75-28.4 0.95-1.9 1.9-3.8 2.8-5.65 8.5-13.65 19.05-26.75 31.35-39.35q14.34-14.55 31.6-28.35c3.3-56.35 35.4-98.05 84.3-131.05q0.9-0.66 1.8-1.25c16.05 2.25 33.5 3.7 52.75 1.15 1.15-0.1 2.3-0.3 3.45-0.5 13-1.95 26.75-5.75 41.35-12.35 2-0.85 4.05-1.8 6.05-2.8q2.7-1.34 5.4-2.75c0.2-0.1 0.35-0.2 0.5-0.25 0.05-0.05 0.1-0.05 0.15-0.1 0.3-0.15 0.65-0.35 1.55-0.85 0.15-0.1 0.3-0.15 0.5-0.25q11.4-6.21 22.65-11.9l4.25 0.25 685.3 40.6c68.55 20.55 119.7 49.5 113.95 105.75 17.25 9.5 32.5 20.4 45.75 32.6 42.05 38.6 64.45 90.3 69.6 153.45v0.35c0.3 9.9 0.65 22.1 1.05 37.15 30.95 32.2 50 65.25 61.35 96.2q1.21 3.37 2.35 6.75c0.6 1.9 1.25 3.85 1.85 5.75 0.55 1.95 1.15 3.85 1.65 5.75 0.45 1.4 0.8 2.8 1.15 4.2q0.9 3.29 1.65 6.65c1.05 4.55 2 9.15 2.8 13.9 0 0.05 0 0.05 0 0.1 0.65 3.8 1.25 7.5 1.7 11.2 0.2 1.85 0.45 3.65 0.6 5.5 0.4 3.5 0.65 6.95 0.85 10.3q0.22 2.79 0.3 5.5 0.08 2.31 0.15 4.55c0.3 13.2-0.5 25.1-1.75 35.15q-0.37 2.91-0.75 5.6c-0.65 4.5-1.4 8.55-2.15 12.1q-0.46 2.17-0.85 4.05c-0.3 1.3-0.55 2.45-0.85 3.6-1.65 6.65-2.95 10.3-2.95 10.3 145.25 168.5 20.35 304.3 15.25 309.75q-0.15 0.15-0.15 0.15z"/>
						</g>
						<g id="&lt;Group&gt;">
							<g id="&lt;Group&gt;">
								<path id="&lt;Path&gt;" class="s6" d="m1399.7 1987.49q-0.01-0.03-0.01-0.06-0.02 0.05-0.03 0.1 0.02-0.02 0.04-0.04z"/>
							</g>
							<g id="&lt;Group&gt;">
								<path id="&lt;Path&gt;" class="s6" d="m2639.1 2822.02c-1.35 10.38-8.65 57.18-48.7 88.68-23.6 18.57-47.95 23.48-60.4 24.99-14.9 16.28-42.85 42.2-85 57.38-78.7 28.33-147.75-2.19-165-10.43-5.1 9.23-21.9 36.98-55.85 50.6-50.35 20.19-95.15-8.03-100.5-11.48-41.7 22.02-73.4 33.91-114.75 33.91h-0.3c-41.35 0-73.05-11.89-114.75-33.91-5.8 3.71-50.5 31.25-100.5 11.48-30.7-12.16-47.3-35.73-53.35-45.38-23.6 6.2-72 15.38-130 0-48.05-12.79-81.75-36.89-100-52.17-10 0.73-47.75 2.35-82.9-25.04-41.5-32.29-47.75-80.23-48.7-88.63-48.09-28.36-74.67-68.08-85.9-110.49-17.97 74.55-1.37 163.36 85.9 214.82 0.95 8.4 7.2 56.34 48.7 88.63 35.15 27.39 72.9 25.77 82.9 25.04 18.25 15.28 51.95 39.39 100 52.17 58 15.38 106.4 6.2 130 0 6.05 9.65 22.65 33.22 53.35 45.38 50 19.77 94.7-7.77 100.5-11.48 41.7 22.02 73.4 33.91 114.75 33.91h0.3c41.35 0 73.05-11.89 114.75-33.91 5.35 3.45 50.15 31.67 100.5 11.48 33.95-13.62 50.75-41.37 55.85-50.6 17.25 8.24 86.3 38.76 165 10.43 42.15-15.18 70.1-41.1 85-57.38 12.45-1.51 36.8-6.42 60.4-24.99 40.05-31.5 47.35-78.3 48.7-88.68 87.29-51.47 103.91-140.31 85.93-214.86-11.23 42.42-37.82 82.16-85.93 110.53z"/>
							</g>
						</g>
						<g id="&lt;Group&gt;">
							<path id="&lt;Path&gt;" class="s6" d="m2605 1996.7c-16 11.15-72.7 47.55-149.55 38.55-98.75-11.45-152.2-88.65-160.35-100.9-102.2 123.4-239.6 140-286.35 140-46.7 0-184.1-16.6-286.3-140-5.65 9.2-58.85 93.4-160.35 100.95-88.45 6.55-147.5-49.95-157.1-59.45 1.9-5.35 4.1-11.4 6.75-17.95 8.65-7.4 23.15-21.5 33.2-42.9q0.51-1.05 0.95-2.1 14.34-14.55 31.6-28.35c3.3-56.35 35.4-98.05 84.3-131.05 17.15 2.1 35.45 2.7 54.55-0.1 1.15-0.1 2.3-0.3 3.45-0.5 13.5-2.2 27.3-6.1 41.35-12.35 2-0.85 4.05-1.8 6.05-2.8q2.7-1.34 5.4-2.75c0.2-0.1 0.35-0.2 0.5-0.25 0.05-0.05 0.1-0.05 0.15-0.1 0.25-0.25 0.6-0.45 1.55-0.85 0.15-0.1 0.3-0.15 0.5-0.25 9.15-4 18.15-7.9 26.9-11.65l685.3 40.6c68.55 20.55 119.7 49.5 113.95 105.75 17.25 9.5 32.5 20.4 45.75 32.6q3.75 5.94 7.8 12.4c21.75 34.45 38.7 63.55 50 83.45z"/>
						</g>
						<g id="&lt;Group&gt;">
							<g id="&lt;Group&gt;">
								<path id="&lt;Path&gt;" class="s6" d="m1705.54 2473.18c9.65 23.58 7.63 52.3-5.96 77.02-6.81 12.32-16.81 23.61-29.66 31.94-12.79 8.29-28.6 13.43-44.57 13.38-15.97 0.09-31.78-5.07-44.59-13.33-12.84-8.36-22.89-19.6-29.69-31.96-13.6-24.72-15.61-53.47-5.9-77.04 9.95 23.35 21.3 42.02 35.49 55.41 7.04 6.61 14.46 11.85 22.03 15.2 7.53 3.47 15.07 4.99 22.66 5.11 7.6-0.08 15.14-1.62 22.69-5.06 7.57-3.38 15.04-8.57 22.06-15.21 14.21-13.4 25.54-32.1 35.44-55.45z"/>
							</g>
							<g id="&lt;Group&gt;">
								<g id="&lt;Group&gt;">
									<path id="&lt;Path&gt;" class="s5" d="m1815 2473.18c0 54.7-35.9 99.03-80.18 99.03-44.29 0-80.19-44.33-80.19-99.02"/>
								</g>
								<g id="&lt;Group&gt;">
									<path id="&lt;Path&gt;" class="s6" d="m1815 2473.18c9.65 23.58 7.63 52.3-5.95 77.02-6.82 12.32-16.82 23.61-29.66 31.94-12.8 8.29-28.61 13.43-44.57 13.38-15.98 0.09-31.79-5.07-44.6-13.33-12.84-8.36-22.89-19.6-29.69-31.96-13.6-24.72-15.6-53.47-5.9-77.04 9.96 23.35 21.3 42.02 35.49 55.41 7.04 6.61 14.46 11.85 22.03 15.2 7.54 3.47 15.07 4.99 22.67 5.11 7.59-0.08 15.13-1.62 22.68-5.06 7.57-3.38 15.04-8.57 22.06-15.21 14.21-13.4 25.54-32.1 35.44-55.45z"/>
								</g>
							</g>
						</g>
						<g id="&lt;Group&gt;">
							<g id="&lt;Group&gt;">
								<path id="&lt;Path&gt;" class="s6" d="m2294.88 2661.18c10.14 24.79 8.02 55-6.27 80.99-7.16 12.96-17.68 24.84-31.19 33.6-13.41 8.82-30.11 14.07-46.88 14.06-16.77 0.04-33.47-5.21-46.9-14.01-13.5-8.79-24.07-20.62-31.22-33.61-14.31-26-16.41-56.24-6.21-81.03 5.44 12.34 10.72 23.3 16.98 33.05 6.16 9.73 12.95 18.26 20.35 25.23 7.4 6.95 15.2 12.46 23.17 15.98 7.97 3.54 15.82 5.31 23.83 5.38 8.02-0.03 15.88-1.81 23.87-5.33 7.95-3.55 15.81-9.01 23.19-15.99 7.42-6.98 14.21-15.52 20.36-25.25 6.24-9.76 11.52-20.73 16.92-33.07z"/>
							</g>
							<g id="&lt;Group&gt;">
								<g id="&lt;Group&gt;">
									<path id="&lt;Path&gt;" class="s5" d="m2410 2661.18c0 57.52-37.76 104.15-84.33 104.15-46.58 0-84.33-46.63-84.33-104.15"/>
								</g>
								<g id="&lt;Group&gt;">
									<path id="&lt;Path&gt;" class="s6" d="m2410 2661.18c10.15 24.79 8.02 55-6.26 80.99-7.17 12.96-17.69 24.84-31.2 33.6-13.41 8.82-30.1 14.07-46.87 14.06-16.77 0.04-33.48-5.21-46.91-14.01-13.5-8.79-24.07-20.62-31.22-33.61-14.3-26-16.41-56.24-6.2-81.03 5.43 12.34 10.72 23.3 16.97 33.05 6.16 9.73 12.95 18.26 20.35 25.23 7.41 6.95 15.21 12.46 23.18 15.98 7.96 3.54 15.82 5.31 23.83 5.38 8.01-0.03 15.88-1.81 23.86-5.33 7.96-3.55 15.81-9.01 23.2-15.99 7.41-6.98 14.2-15.52 20.36-25.25 6.24-9.76 11.51-20.73 16.91-33.07z"/>
								</g>
							</g>
						</g>
						<g id="&lt;Group&gt;">
							<path id="&lt;Path&gt;" class="s6" d="m2319.96 2041.92c10.69 20.31 10.09 46.25-1.52 68.9-5.83 11.31-14.71 21.8-26.44 29.56-11.63 7.78-26.3 12.52-41.04 12.5-14.75 0.05-29.43-4.68-41.07-12.46-11.73-7.76-20.65-18.23-26.47-29.56-11.63-22.65-12.22-48.63-1.46-68.94 10.96 20.06 21.87 34.9 34.15 45.04 6.09 4.99 12.2 8.7 18.04 11.01 5.86 2.32 11.28 3.34 16.81 3.42 5.53-0.04 10.96-1.06 16.83-3.37 5.84-2.32 11.99-6.01 18.07-11.02 6.09-5.01 11.96-11.35 17.6-18.84 5.72-7.5 10.84-16.15 16.5-26.24z"/>
						</g>
						<g id="&lt;Group&gt;">
							<path id="&lt;Compound Path&gt;" fill-rule="evenodd" class="s1" d="m2008.9 3175c-2.82 0-5.35-0.05-7.81-0.16-35.38-1.47-63.69-13.3-96.55-32.1q-0.12 0.05-0.24 0.09c-9.43 3.57-18.98 6.38-28.37 8.35-57.61 12.22-108.52-4.91-144.54-48.35-27.71 8.87-57 12.71-85.42 11.15-15.82-0.8-31.76-3.34-47.29-7.55-33.18-9-64.73-25.77-91.62-48.63-18.58 0.04-54.55-3.83-87.82-29.95-0.67-0.5-1.23-0.94-1.75-1.38-36.72-29.68-48.86-69.52-52.83-90.65l-0.05-0.27c-11.05-6.98-21.24-14.73-30.38-23.08-1.68-1.56-3.09-2.87-4.45-4.18-44.09-42.73-64.49-102.54-57.45-168.43 0.57-5.33 1.33-10.71 2.35-16.46 0.48-2.76 0.98-5.52 1.57-8.23 1.05-5.02 2.24-9.99 3.54-14.64l0.3-1.12c1.4-5.06 2.83-9.7 4.38-14.13l0.46-1.35c4.03-11.6 8.84-22.75 14.35-33.28-4.11-5.16-9.57-12.53-15.34-21.86-1.81-2.78-3.87-6.26-6.13-10.36-2.25-3.93-4.44-8.11-6.42-12.21-1.32-2.64-2.68-5.58-3.99-8.57-1.29-2.91-2.59-5.98-3.83-9.16-23.26-59-32.66-150.37 52.31-252.99-8.52-31.35-29.1-142.18 66.86-247.52-15.11-51.05-8.7-99.35 19.1-143.7 14.35-22.99 34.93-45.62 61.21-67.32 5.28-54.46 35.51-99.4 92.23-137.19 18.84-12.61 40.45-24.38 66.04-35.94l3.37-1.52 74.14 4.37 691.3 40.95 1.68 0.5c58.98 17.68 125.41 46.3 125.11 111.71 69.16 41.36 107.77 106.32 114.83 193.25l0.05 0.97c0.79 10.22 1.17 20.83 1.12 31.64 16.94 17.56 43.53 50.41 60.39 97.22q1.29 3.58 2.47 7.08l2.66 8.52q0.54 1.77 1.01 3.53c0.5 1.6 0.91 3.2 1.31 4.8 0.57 2.08 1.18 4.52 1.73 7 1.19 5.15 2.16 9.98 2.95 14.66l0.21 1.33c0.61 3.6 1.16 7.12 1.59 10.65l0.23 1.95q0.25 2.06 0.43 4.14c0.39 3.29 0.66 7.01 0.88 10.62 0.14 1.8 0.25 3.93 0.31 5.99l0.15 4.47c0.29 12.73-0.34 25.29-1.85 37.49l-0.78 5.8q-0.93 6.48-2.28 12.88c-0.29 1.67-0.64 3.24-0.99 4.7l-0.21 0.95c-0.24 1.02-0.46 1.97-0.71 2.93q-0.4 1.63-0.78 3.05c126.95 153.35 43.01 281.75 16.54 315.2 26.73 51.38 43.52 131.95 8.46 204.1-2.77 5.77-5.85 11.34-9.39 16.97q-0.46 0.74-0.95 1.51v0.13l-2.54 3.84c-5.15 7.67-10.82 14.93-16.91 21.63v0.13l-4.23 4.42c-3.59 3.71-6.89 6.9-10.08 9.75-9.11 8.26-19.3 15.95-30.31 22.86-10 39.36-26.21 68.36-49.37 88.19-1.33 1.14-2.74 2.31-4.21 3.41-2.74 2.17-5.86 4.39-9.23 6.55-1.99 1.26-3.96 2.42-6.06 3.63-12.91 7.18-27.5 12.23-43.6 15.14-17.11 24.15-44.18 42.83-78.71 54.22l-2.39 0.76c-54.45 17.24-123.32 15.27-173.09-4.37-36.16 43.1-87.07 59.95-144.64 47.53l-4.61-1.07c-7.62-1.86-15.37-4.25-23.09-7.14q-0.14-0.05-0.27-0.11c-32.86 18.8-61.18 30.63-96.59 32.1-2.42 0.11-4.95 0.16-7.47 0.16zm-102.04-65.65l6.49 3.82c32.46 19.08 57.44 30.38 89.02 31.69 4.46 0.2 8.9 0.17 12.71 0 31.63-1.31 56.61-12.61 89.07-31.69l6.49-3.82 6.94 2.93q3.12 1.31 6.23 2.49c7.3 2.74 14.63 4.95 21.79 6.58h4.78l1.23 1.26c34.55 6.42 81.47 2.8 117.16-46.28l7.34-10.11 11.27 5.41c43.78 20.98 112.86 23.94 164.23 7.02l2.16-0.71c29.12-10.01 51.21-25.89 63.96-46.02l4.05-6.63 7.07-0.99c15.13-2.14 28.49-6.38 39.72-12.62 1.48-0.85 3.09-1.79 4.71-2.82 2.51-1.6 4.82-3.25 7.06-5.02 1.24-0.94 2.12-1.68 2.98-2.41 19.2-16.43 32.62-41.91 41.08-77.91l0.27-1.05 1.66-5.73 5.2-3.26c11.36-6.7 21.77-14.31 30.94-22.64 2.04-1.82 4.11-3.79 6.32-5.99l2.32-2.41c6.27-6.46 11.88-13.34 17.1-21.01l1.49-2.31q1.06-1.61 2.08-3.25c3-4.76 5.55-9.37 7.85-14.17 32.12-66.11 13.33-141.11-12.52-185.27l-2.06-3.51v-10.12l5.33-5.6c12.84-14.48 113.54-137.26-16.79-288.46l-5.71-6.61 2.94-8.23c0 0 1.11-3.18 2.52-8.86 0.22-0.84 0.37-1.52 0.54-2.25l0.26-1.15c0.25-1.03 0.49-2.06 0.68-3.18l0.1-0.55c0.8-3.78 1.44-7.42 1.99-11.15l0.72-5.4c1.32-10.66 1.87-21.75 1.62-32.87l-0.14-4.37c-0.05-1.65-0.13-3.22-0.26-4.8-0.21-3.41-0.44-6.59-0.8-9.82-0.13-1.51-0.26-2.51-0.38-3.53l-0.23-2.06c-0.4-3.26-0.97-6.73-1.57-10.28l-0.22-1.35c-0.65-3.71-1.44-7.59-2.42-11.81-0.47-2.14-0.97-4.1-1.5-6.07-0.36-1.42-0.62-2.5-0.96-3.57l-0.22-0.74q-0.42-1.54-0.88-3.1l-2.42-7.72c-0.65-1.93-1.41-4.08-2.18-6.24-16.43-45.61-43.22-76.29-57.72-90.52l-4.63-4.53 0.13-6.48c0.24-12.24-0.09-24.24-1-35.66l-0.05-0.92c-6.69-80.47-41.89-137.23-107.6-173.54l-8.68-4.8 1.01-9.85c4.06-39.76-26.36-66.53-101.67-89.36l-754.53-44.68c-22.6 10.38-41.73 20.87-58.39 32.03-50.69 33.77-76.68 73.25-79.46 120.71l-0.39 6.67-5.23 4.17c-26.06 20.82-46.11 42.33-59.59 63.92-24.69 39.39-29.06 80.84-13.38 126.76l2.96 8.65-6.33 6.59c-105.26 109.67-65.53 226.79-63.79 231.72l2.9 8.21-5.67 6.62c-80.92 93.85-73.19 176.23-52.45 228.81 1.07 2.78 2.18 5.41 3.34 7.99 1.14 2.62 2.28 5.08 3.47 7.45 1.77 3.69 3.65 7.25 5.66 10.79 2 3.63 3.7 6.49 5.29 8.94 10.17 16.42 18.89 25.58 18.97 25.67l7.86 8.17-5.71 9.82c-6.35 10.85-11.82 22.63-16.29 35.04v0.03l-0.88 2.5c-1.29 3.61-2.5 7.39-3.67 11.52v0.02l-0.58 2.07c-1.22 4.3-2.36 8.97-3.38 13.89-0.55 2.48-0.95 4.81-1.37 7.15-0.89 5.07-1.56 9.79-2.06 14.43-6.04 56.53 11.18 107.56 48.48 143.7 1.2 1.15 2.46 2.33 3.73 3.5 9.38 8.59 20 16.38 31.65 23.25l5.8 3.42 1.54 8.3c0.12 0.74 0.2 1.23 0.25 1.73l0.11 0.64q0.12 0.73 0.24 1.54 0.16 0.83 0.27 1.6c3.3 17.22 13.15 49.1 42.28 72.56l1.19 0.94c29.55 23.2 61.59 24.15 73.99 23.46l6.19-0.33 4.62 4.13c24.39 21.8 53.45 37.71 84.03 46 13.46 3.65 27.27 5.85 41.03 6.55 28 1.53 56.97-2.93 83.87-12.93l10.67-3.97 6.69 9.22c37.02 50.97 86.2 52.87 120.94 45.49 7.92-1.67 15.97-4.04 23.97-7.06q3.11-1.18 6.22-2.49zm-543.36-181.26q0.01 0.09 0.02 0.19z"/>
						</g>
					</g>
					<g id="&lt;Group&gt;">
						<g id="&lt;Group&gt;">
							<path id="&lt;Path&gt;" class="s7" d="m2678.34 1199.49c-59.4-4.02-81.67-37.92-125.7-37.92-44.04 0-66.31 33.9-125.75 37.92-51.1 3.48-87.09-24.46-79.05-84.41 6.13 38.79 37.62 56.66 79.05 53.83 59.44-4.03 81.71-37.9 125.75-37.9 44.03 0 66.3 33.87 125.7 37.9 41.47 2.83 72.96-15.01 79.09-53.8 8.01 59.92-27.95 87.86-79.09 84.38z"/>
						</g>
						<g id="&lt;Group&gt;">
							<path id="&lt;Path&gt;" class="s5" d="m2001.12 416.63c84.45 3.18 136.36 33.71 184.68 102.3 118.45-69.25 239.31-36.48 279.24 97.8 106.88-42.33 202.39 23.18 159.53 150.21 198.24 40.11 212.08 206.1 103.47 338.8 134.96 64.23 148.01 276.48-17.57 344.15 68.68 66.58 34.61 144.85-59.63 141.15 54.84 160.19-78.53 240.69-229.46 216.11-14.77 136.77-130.17 162.15-236.78 61.44-65.48 71.76-153.53 81.41-183.48 81.41-29.95 0-117.99-9.65-183.48-81.41-106.61 100.71-222.01 75.33-236.78-61.44-150.93 24.58-284.3-55.92-229.46-216.11-94.23 3.7-128.31-74.57-59.63-141.15-165.57-67.67-152.53-279.92-17.57-344.15-108.61-132.7-94.76-298.69 103.47-338.8-42.86-127.03 52.66-192.54 159.53-150.21 39.93-134.28 160.79-167.05 279.24-97.8 48.32-68.59 100.23-99.12 184.68-102.3z"/>
						</g>
						<g id="&lt;Group&gt;">
							<path id="&lt;Path&gt;" class="s6" d="m2697.95 1549.53c-9.95 6.09-24.03 9.44-40.72 9.44q-0.04 0-0.04 0-2.48 0-5.05-0.1l-47.18-1.87 15.17 44.4c16.77 48.97 13.91 91.12-8.26 121.9-25.68 35.58-75.91 55.99-137.78 56.02-15.46 0-31.45-1.32-47.46-3.93l-33.82-5.54-3.67 33.88c-6.45 59.69-34.43 93.94-76.78 93.98-32.16 0-69.61-18.64-105.41-52.45l-24.06-22.73-22.3 24.44c-62.84 68.83-149.77 70.83-159.47 70.83-9.69 0-96.62-2-159.46-70.83l-22.31-24.44-24.06 22.73c-35.79 33.81-73.24 52.45-105.41 52.45-42.34 0-70.32-34.26-76.78-93.98l-3.66-33.88-33.82 5.54c-16.02 2.61-31.97 3.93-47.47 3.93-61.86 0-112.09-20.41-137.77-56.02-22.18-30.75-25.06-72.93-8.27-121.9l15.18-44.4-47.18 1.87q-2.57 0.1-5.09 0.1c-16.73 0-30.8-3.38-40.79-9.47 21.17 3.67 41.8-2.51 56.61-11.33 75.13-44.82 38.36-152.48 95.46-197.69 82.68-168.23 460.39-230.88 544.82-234.03 84.47 3.15 462.18 65.8 544.86 234.03 57.07 45.21 20.33 152.87 95.42 197.69 14.82 8.82 35.38 14.97 56.55 11.36z"/>
						</g>
						<g id="&lt;Group&gt;">
							<path id="&lt;Compound Path&gt;" fill-rule="evenodd" class="s1" d="m2001.12 1964.76c-18.46 0-110.69-3.8-184.18-75.66-56.34 48.58-118.15 66.72-167.44 48.55-42.96-15.84-71.46-55.98-81.23-113.82-87.36 10.41-166.52-13.63-209.25-64.24-24.29-28.76-47.55-78.23-27.4-154.21-40.73-3.39-71.67-22.33-84.68-52.7-12.98-30.33-5.32-65.83 20.34-97.82-68.25-35.07-109.56-98.82-111.68-174.06-2.1-74.57 35.17-143.23 96.2-179.79-54.74-73.62-73.41-155.28-49.88-221.25 15.42-43.23 55.27-98.74 157.07-123.76-14.46-55.27-4.5-103.8 28.19-134.85 33.51-31.81 86.38-40.31 140.7-23.37 20.55-57.41 56.77-97.66 105.4-116.88 53.39-21.09 116.49-14.37 178.93 18.77 49.92-66.13 105.36-94.67 188.36-97.78l0.55-0.03 0.55 0.03c82.99 3.11 138.44 31.65 188.36 97.78 62.45-33.14 125.54-39.86 178.93-18.77 48.63 19.22 84.85 59.48 105.4 116.88 54.33-16.94 107.19-8.45 140.7 23.37 32.7 31.05 42.65 79.58 28.19 134.85 101.8 25.02 141.65 80.53 157.07 123.76 23.53 65.97 4.86 147.63-49.88 221.25 61.03 36.56 98.3 105.22 96.2 179.79-2.12 75.24-43.44 138.99-111.68 174.06 25.66 31.99 33.32 67.49 20.33 97.82-13 30.37-43.95 49.31-84.67 52.7 20.15 75.98-3.11 125.45-27.4 154.21-42.73 50.61-121.91 74.65-209.24 64.24-9.77 57.84-38.28 97.98-81.24 113.82-49.29 18.19-111.1 0.03-167.44-48.55-73.49 71.86-165.72 75.66-184.18 75.66zm-182.7-117.21l10.13 11.09c67.93 74.45 162.06 76.6 172.57 76.6 10.51 0 104.64-2.15 172.58-76.6l10.12-11.09 10.92 10.31c50.81 48 106.06 67.46 147.79 52.09 35.53-13.1 58.32-50.17 64.18-104.38l1.67-15.49 15.38 2.5c82.95 13.51 158.4-6.42 196.91-52.03 30.61-36.25 36.21-86.3 16.21-144.73l-6.98-20.37 21.52 0.84c37.99 1.51 66.65-11.68 76.74-35.23 10.13-23.66-0.33-53.78-27.96-80.57l-16.22-15.72 20.9-8.54c68.32-27.92 110.28-86.34 112.25-156.26 1.95-69.23-35.51-132.39-95.43-160.91l-17.02-8.09 11.94-14.58c56.53-69.07 77.43-146.35 55.9-206.71-19.56-54.82-71.73-92.26-150.87-108.27l-16.41-3.32 5.35-15.87c17.23-51.09 11.6-93.59-15.86-119.66-28.11-26.69-75.71-31.33-124.26-12.11l-14.98 5.94-4.6-15.45c-16.74-56.28-48.82-95.21-92.78-112.58-48.1-19.02-106.65-10.73-164.86 23.31l-11.71 6.85-7.81-11.09c-46.51-66.03-94.94-92.99-172.61-96.02-77.67 3.03-126.1 29.99-172.61 96.02l-7.81 11.09-11.71-6.85c-58.22-34.03-116.75-42.31-164.86-23.32-43.96 17.38-76.04 56.31-92.78 112.59l-4.6 15.45-14.98-5.94c-48.55-19.23-96.15-14.58-124.26 12.11-27.46 26.07-33.09 68.57-15.85 119.66l5.35 15.87-16.41 3.32c-79.15 16.01-131.32 53.45-150.88 108.27-21.53 60.36-0.63 137.64 55.9 206.71l11.94 14.58-17.02 8.09c-59.92 28.52-97.38 91.68-95.43 160.9 1.97 69.93 43.92 128.35 112.25 156.27l20.9 8.54-16.22 15.72c-27.63 26.79-38.09 56.91-27.96 80.57 10.09 23.56 38.86 36.72 76.74 35.23l21.52-0.84-6.98 20.37c-20 58.43-14.39 108.48 16.21 144.73 38.51 45.6 113.95 65.53 196.92 52.03l15.37-2.5 1.67 15.49c5.86 54.21 28.65 91.28 64.18 104.38 41.73 15.39 96.98-4.09 147.8-52.09z"/>
						</g>
						<g id="&lt;Group&gt;">
							<g id="&lt;Group&gt;">
								<path id="&lt;Path&gt;" class="s2" d="m1428.26 1021.68c-109.12 167.06-419.51 111.55-414.01 247.41 3.33 82.26 109.84 134.25 211.13 111.02 129.43-29.69 179.81-143.66 199.4-209.45z"/>
							</g>
							<g id="&lt;Group&gt;" style="opacity: .7">
								<path id="&lt;Path&gt;" class="s5" d="m1428.24 1021.69l-0.77 32.74c-117.54 148.4-408.29 100.58-402.94 232.11 0.52 12.88 3.57 25.01 8.72 36.25-11.34-15.71-18.19-33.81-19-53.7-5.51-135.87 304.89-80.37 413.99-247.4z"/>
							</g>
							<g id="&lt;Group&gt;">
								<path id="&lt;Path&gt;" class="s3" d="m1176.12 1366.35c-61.98 0-114.34-27.44-134.08-66.47-20.85-44.25 59.67-49.89 153.43-78.85 73.07-22.56 135.79-14.07 197.79-71.11l12.13 17.7c-22.75 74.83-73.17 168.16-184.39 193.67-14.65 3.36-29.75 5.06-44.88 5.06z"/>
							</g>
							<g id="&lt;Group&gt;">
								<path id="&lt;Path&gt;" class="s8" d="m1175.99 1399.14c-46.48 0-91.54-13.73-124.97-39.27-30.99-23.68-48.83-55.73-50.23-90.23-3.18-78.63 82.7-101.38 173.63-125.47 89.4-23.69 190.75-50.53 242.56-129.86l22.56 14.74c-57.47 87.98-164.13 116.24-258.22 141.16-96.67 25.61-155.8 44.06-153.6 98.34 1.36 33.78 22.32 56.66 39.66 69.91 39.78 30.39 99.17 41.31 154.99 28.52 115.23-26.43 166.66-123.44 189.5-200.16l25.82 7.69c-24.89 83.59-81.4 189.4-209.29 218.73-17.31 3.97-34.96 5.9-52.41 5.9z"/>
							</g>
							<g id="&lt;Group&gt;">
								<path id="&lt;Path&gt;" class="s1" d="m1176 1400.43c-46.76 0-92.1-13.82-125.76-39.54-31.3-23.92-49.32-56.31-50.73-91.2-3.23-79.66 83.14-102.54 174.58-126.77 89.18-23.62 190.27-50.4 241.81-129.31l24.72 16.14c-57.75 88.4-164.65 116.72-258.97 141.71-96.05 25.44-154.8 43.74-152.65 97.04 1.35 33.27 22.04 55.85 39.17 68.94 39.47 30.16 98.44 41.01 153.91 28.28 114.63-26.29 165.81-122.87 188.56-199.27l28.29 8.42c-24.99 83.93-81.76 190.15-210.25 219.63-17.39 3.99-35.14 5.93-52.68 5.93z"/>
							</g>
							<g id="&lt;Group&gt;">
								<path id="&lt;Path&gt;" class="s9" d="m1376.78 1210.28c-18.92 46.69-84.75 121.35-177.66 127.12-70.12 4.35-96.46-35.36-93.08-58.79 9.45-56.52 223.99-53.47 311.46-161.96z"/>
							</g>
							<g id="&lt;Group&gt;">
								<path id="&lt;Path&gt;" class="s9" d="m1417.51 1116.64l-40.72 93.65c-4.96 12.24-13.13 26.37-24.19 40.7v0.03c-16.73 21.7-40.04 43.86-68.68 60.31h-0.03c-24.61 14.13-53.11 24.11-84.79 26.08-70.1 4.34-96.43-35.35-93.05-58.79 9.43-56.54 223.98-53.48 311.46-161.98z"/>
							</g>
							<g id="&lt;Group&gt;">
								<path id="&lt;Path&gt;" class="s10" d="m1417.51 1116.64l-40.72 93.65c-4.96 12.24-13.13 26.37-24.19 40.7 9.92-26.21-0.45-35.67-11.48-37.02-19.91-2.42-51.81 19.12-88.29 31.81-32.75 11.36-70.13 18.09-73.02 37.76-5.06 34.23 73.96 39.7 104.08 27.79-24.61 14.13-53.11 24.11-84.79 26.08-70.1 4.34-96.43-35.35-93.05-58.79 9.43-56.54 223.98-53.48 311.46-161.98z"/>
							</g>
							<g id="&lt;Group&gt;">
								<path id="&lt;Path&gt;" class="s1" d="m1376.78 1210.28c-4.61 14.18-11.67 27.61-19.97 40.15-8.31 12.57-17.92 24.35-28.67 35.07-21.32 21.64-47.3 39.15-76.27 50.49-14.54 5.44-29.77 9.47-45.36 11.3-15.51 1.96-31.61 2.48-47.83-0.55-16.08-2.98-32.6-9.53-45.86-21.73-6.58-6.08-12.28-13.51-16.11-22.29-1.88-4.41-3.29-9.15-3.95-14.22-0.58-5.03-0.74-10.47 1.07-16.53 1.66-5.62 4.61-10.52 7.87-14.45 3.29-3.95 6.9-7.01 10.5-9.68 7.23-5.3 14.56-9.04 21.83-12.32 14.56-6.48 29.08-10.96 43.47-15.36 28.86-8.43 57.43-15.64 85.57-23.98 28.06-8.43 55.86-17.57 82.12-30.19 26.41-12.27 51.2-28.22 72.31-49.34-16.33 25.14-40.24 45.13-65.81 61.21-25.86 15.89-53.62 28.34-81.81 38.72-28.13 10.56-56.84 19.03-84.67 28.21-13.89 4.52-27.63 9.33-40.14 15.04-6.23 2.84-12.13 6.03-16.83 9.56-4.81 3.52-7.83 7.34-8.67 10.25-0.43 1.05-0.51 3.22-0.26 5.52 0.27 2.29 0.93 4.75 1.95 7.17 1.99 4.88 5.26 9.65 9.47 13.74 8.44 8.23 20.16 14.03 32.99 17.13 12.85 3.12 26.78 4.15 40.77 3.21 13.97-0.87 27.86-3.6 41.39-7.7 27.17-8.15 52.48-22.85 74.94-41.21 22.18-18.65 42.29-40.76 55.96-67.22z"/>
							</g>
							<g id="&lt;Group&gt;">
								<path id="&lt;Path&gt;" class="s5" d="m1429.64 1278.61c-52.37-35.13-49.33-86.48-19.17-127.17-32.91-41.97-40.17-114.45 37.57-150.91 0 0 56.44 9.05 56.44 123.22 0 114.16-74.84 154.86-74.84 154.86z"/>
							</g>
							<g id="&lt;Group&gt;">
								<path id="&lt;Path&gt;" class="s1" d="m1429.64 1278.61c-12.62-3.13-24.46-9.75-34.18-19.55-9.65-9.77-16.76-23.08-19.22-37.43-2.48-14.33-1.11-29.11 2.96-42.6 4.06-13.54 10.6-25.94 18.59-36.99l0.26 19.14c-10.98-13.46-18.56-29.46-22.25-46.41-3.65-16.91-3.48-34.97 1.68-51.65 5.04-16.72 15.33-31.38 27.99-41.84 12.72-10.52 27.48-17.22 42.57-20.75-6.14 4.79-11.98 9.64-17.39 14.73-5.29 5.23-10.18 10.6-14.26 16.39-8.33 11.43-13.49 24.13-15.3 37.02-1.8 12.9-0.45 26.08 3.71 38.47 4.11 12.4 10.43 24.07 18.09 34.56l0.44 0.6c4.15 5.67 3.87 13.22-0.18 18.54-6.54 8.61-12.05 17.87-15.71 27.58-3.66 9.7-5.5 19.8-4.8 29.78 0.57 9.97 3.16 19.96 7.91 29.96 4.64 10.1 11.5 19.85 19.09 30.45z"/>
							</g>
						</g>
						<g id="&lt;Group&gt;">
							<g id="&lt;Group&gt;">
								<path id="&lt;Path&gt;" class="s2" d="m2570.92 1021.68c109.12 167.06 419.51 111.55 414.01 247.41-3.33 82.26-109.84 134.25-211.13 111.02-129.43-29.69-179.81-143.66-199.4-209.45z"/>
							</g>
							<g id="&lt;Group&gt;" style="opacity: .7">
								<path id="&lt;Path&gt;" class="s5" d="m2570.94 1021.69l0.77 32.74c117.54 148.4 408.29 100.58 402.94 232.11-0.52 12.88-3.57 25.01-8.72 36.25 11.35-15.71 18.19-33.81 19-53.7 5.51-135.87-304.89-80.37-413.99-247.4z"/>
							</g>
							<g id="&lt;Group&gt;">
								<path id="&lt;Path&gt;" class="s3" d="m2823.07 1366.35c61.97 0 114.33-27.44 134.07-66.47 20.85-44.25-59.67-49.89-153.43-78.85-73.07-22.56-135.79-14.07-197.79-71.11l-12.13 17.7c22.75 74.83 73.17 168.16 184.39 193.67 14.65 3.36 29.75 5.06 44.89 5.06z"/>
							</g>
							<g id="&lt;Group&gt;">
								<path id="&lt;Path&gt;" class="s8" d="m2823.19 1399.14c-17.45 0-35.09-1.93-52.4-5.9-127.89-29.33-184.41-135.14-209.3-218.73l25.82-7.69c22.85 76.72 74.27 173.73 189.5 200.16 55.81 12.8 115.21 1.88 154.99-28.52 17.34-13.25 38.3-36.13 39.67-69.91 2.19-54.28-56.94-72.73-153.61-98.34-94.09-24.92-200.75-53.18-258.22-141.16l22.56-14.74c51.81 79.33 153.15 106.17 242.56 129.86 90.93 24.09 176.81 46.83 173.63 125.47-1.4 34.5-19.24 66.55-50.23 90.23-33.43 25.54-78.49 39.27-124.97 39.27z"/>
							</g>
							<g id="&lt;Group&gt;">
								<path id="&lt;Path&gt;" class="s1" d="m2823.18 1400.43c-17.54 0-35.28-1.94-52.68-5.93-128.49-29.48-185.25-135.7-210.24-219.63l28.29-8.42c22.75 76.4 73.92 172.98 188.55 199.27 55.48 12.72 114.44 1.89 153.92-28.28 17.12-13.09 37.81-35.67 39.16-68.95 2.16-53.29-56.6-71.59-152.64-97.03-94.33-24.99-201.23-53.31-258.98-141.71l24.72-16.14c51.54 78.91 152.62 105.69 241.81 129.31 91.44 24.23 177.81 47.11 174.58 126.77-1.41 34.89-19.42 67.28-50.73 91.2-33.65 25.72-79 39.54-125.76 39.54z"/>
							</g>
							<g id="&lt;Group&gt;">
								<path id="&lt;Path&gt;" class="s9" d="m2622.4 1210.28c18.92 46.69 84.75 121.35 177.66 127.12 70.12 4.35 96.46-35.36 93.09-58.79-9.46-56.52-224-53.47-311.47-161.96z"/>
							</g>
							<g id="&lt;Group&gt;">
								<path id="&lt;Path&gt;" class="s9" d="m2581.67 1116.64l40.72 93.65c4.96 12.24 13.13 26.37 24.19 40.7v0.03c16.73 21.7 40.05 43.86 68.68 60.31h0.03c24.61 14.13 53.11 24.11 84.79 26.08 70.1 4.34 96.43-35.35 93.05-58.79-9.43-56.54-223.98-53.48-311.46-161.98z"/>
							</g>
							<g id="&lt;Group&gt;">
								<path id="&lt;Path&gt;" class="s10" d="m2581.67 1116.64l40.72 93.65c4.96 12.24 13.13 26.37 24.19 40.7-9.92-26.21 0.46-35.67 11.48-37.02 19.91-2.42 51.81 19.12 88.29 31.81 32.75 11.36 70.13 18.09 73.02 37.76 5.06 34.23-73.96 39.7-104.08 27.79 24.61 14.13 53.11 24.11 84.79 26.08 70.1 4.34 96.43-35.35 93.05-58.79-9.43-56.54-223.98-53.48-311.46-161.98z"/>
							</g>
							<g id="&lt;Group&gt;">
								<path id="&lt;Path&gt;" class="s1" d="m2622.4 1210.28c13.67 26.46 33.78 48.57 55.96 67.22 22.46 18.36 47.77 33.06 74.94 41.21 13.53 4.1 27.42 6.83 41.4 7.7 13.98 0.94 27.91-0.09 40.76-3.21 12.83-3.1 24.55-8.9 32.99-17.13 4.21-4.09 7.48-8.86 9.47-13.74 1.02-2.42 1.68-4.88 1.95-7.17 0.25-2.3 0.18-4.47-0.25-5.52-0.85-2.91-3.87-6.73-8.67-10.25-4.71-3.53-10.61-6.72-16.84-9.56-12.51-5.71-26.25-10.52-40.14-15.04-27.83-9.18-56.54-17.65-84.67-28.21-28.19-10.38-55.95-22.83-81.81-38.72-25.57-16.08-49.48-36.07-65.81-61.21 21.11 21.12 45.9 37.07 72.31 49.34 26.26 12.62 54.06 21.76 82.12 30.19 28.14 8.34 56.71 15.55 85.57 23.98 14.39 4.4 28.91 8.88 43.47 15.36 7.27 3.28 14.6 7.02 21.84 12.32 3.59 2.67 7.2 5.73 10.49 9.68 3.26 3.93 6.22 8.83 7.87 14.45 1.81 6.06 1.65 11.5 1.07 16.53-0.66 5.07-2.06 9.81-3.94 14.22-3.83 8.78-9.54 16.21-16.12 22.29-13.26 12.2-29.78 18.75-45.86 21.73-16.22 3.03-32.32 2.51-47.83 0.55-15.59-1.83-30.82-5.86-45.36-11.3-28.97-11.34-54.95-28.85-76.27-50.49-10.75-10.72-20.35-22.5-28.67-35.07-8.3-12.54-15.36-25.97-19.97-40.15z"/>
							</g>
							<g id="&lt;Group&gt;">
								<path id="&lt;Path&gt;" class="s5" d="m2569.54 1278.61c52.37-35.13 49.34-86.48 19.17-127.17 32.91-41.97 40.17-114.45-37.57-150.91 0 0-56.44 9.05-56.44 123.22 0 114.16 74.84 154.86 74.84 154.86z"/>
							</g>
							<g id="&lt;Group&gt;">
								<path id="&lt;Path&gt;" class="s1" d="m2569.54 1278.61c7.59-10.6 14.45-20.35 19.09-30.45 4.75-10 7.34-19.99 7.91-29.96 0.7-9.98-1.14-20.08-4.8-29.78-3.66-9.71-9.17-18.97-15.71-27.58-4.26-5.59-4.13-13.13-0.2-18.53l0.46-0.61c7.66-10.49 13.98-22.16 18.09-34.56 4.16-12.39 5.52-25.57 3.72-38.47-1.82-12.89-6.98-25.59-15.31-37.02-4.08-5.79-8.97-11.16-14.26-16.39-5.41-5.09-11.25-9.94-17.39-14.73 15.09 3.53 29.85 10.23 42.57 20.75 12.66 10.46 22.95 25.12 27.99 41.84 5.16 16.68 5.33 34.74 1.68 51.65-3.69 16.95-11.27 32.95-22.25 46.41l0.26-19.14c8 11.05 14.53 23.45 18.59 36.99 4.07 13.49 5.44 28.27 2.96 42.6-2.46 14.35-9.57 27.66-19.22 37.43-9.72 9.8-21.56 16.42-34.18 19.55z"/>
							</g>
						</g>
						<g id="&lt;Group&gt;">
							<path id="&lt;Path&gt;" class="s2" d="m2001.12 1807.15c213.43 0 643.87-87.64 544.84-466.69-17.57-345.74-143.74-697.34-544.84-697.34-401.09 0-527.27 351.6-544.84 697.34-99.02 379.05 331.41 466.69 544.84 466.69z"/>
						</g>
						<g id="&lt;Group&gt;">
							<path id="&lt;Path&gt;" class="s2" d="m2001.11 1807.15c-213.41 0-643.84-87.63-544.82-466.68 5.51-108.73 21.79-218.04 53.96-316.82 70.13-215.3 215.91-380.53 490.86-380.53 274.96 0 420.74 165.23 490.87 380.53 32.2 98.78 48.48 208.09 53.99 316.82 99.02 379.05-331.44 466.68-544.86 466.68z"/>
						</g>
						<g id="&lt;Group&gt;">
							<path id="&lt;Path&gt;" class="s3" d="m2001.11 1807.15c-195.74 0-574-73.73-558.92-378.37 14.13 275.7 370.83 343.76 558.92 343.76 188.1 0 544.8-68.09 558.97-343.76 15.07 304.64-363.22 378.37-558.97 378.37z"/>
						</g>
						<g id="&lt;Group&gt;">
							<path id="&lt;Path&gt;" class="s9" d="m1667.53 1447.19c0 53.45-43.63 96.77-97.45 96.77-53.82 0-97.45-43.32-97.45-96.77 0-53.44 43.63-96.77 97.45-96.77 53.82 0 97.45 43.33 97.45 96.77z"/>
						</g>
						<g id="&lt;Group&gt;">
							<path id="&lt;Path&gt;" class="s9" d="m2530.01 1447.19c0 53.45-43.63 96.77-97.45 96.77-53.83 0-97.46-43.32-97.46-96.77 0-53.44 43.63-96.77 97.46-96.77 53.82 0 97.45 43.33 97.45 96.77z"/>
						</g>
						<g id="&lt;Group&gt;">
							<g id="&lt;Group&gt;">
								<g id="&lt;Group&gt;">
									<g id="&lt;Group&gt;">
										<path id="&lt;Path&gt;" class="s1" d="m1855.81 1230.19c0.05 77.32-54.58 140.03-122.01 140.07-67.43 0.04-122.13-62.61-122.18-139.93-0.04-77.33 54.58-140.04 122.01-140.08 67.44-0.04 122.14 62.61 122.18 139.94z"/>
									</g>
								</g>
								<g id="&lt;Group&gt;">
									<g id="&lt;Group&gt;">
										<path id="&lt;Path&gt;" class="s5" d="m1806.69 1189.74c0.02 27.64-17.79 50.05-39.78 50.06-21.98 0.02-39.82-22.38-39.83-50.01-0.02-27.64 17.79-50.05 39.77-50.07 21.99-0.01 39.83 22.38 39.84 50.02z"/>
									</g>
								</g>
								<g id="&lt;Group&gt;" style="opacity: .2">
									<g id="&lt;Group&gt;">
										<path id="&lt;Path&gt;" class="s5" d="m1710.23 1277.42c0.01 18.7-9.85 33.87-22.02 33.88-12.18 0-22.06-15.15-22.07-33.85-0.01-18.71 9.85-33.88 22.03-33.88 12.17-0.01 22.05 15.15 22.06 33.85z"/>
									</g>
								</g>
							</g>
						</g>
						<g id="&lt;Group&gt;">
							<g id="&lt;Group&gt;">
								<g id="&lt;Group&gt;">
									<g id="&lt;Group&gt;">
										<path id="&lt;Path&gt;" class="s1" d="m2146.43 1230.19c-0.04 77.32 54.58 140.03 122.01 140.07 67.44 0.04 122.14-62.61 122.18-139.93 0.05-77.33-54.58-140.04-122.01-140.08-67.43-0.04-122.13 62.61-122.18 139.94z"/>
									</g>
								</g>
								<g id="&lt;Group&gt;">
									<g id="&lt;Group&gt;">
										<path id="&lt;Path&gt;" class="s5" d="m2195.55 1189.74c-0.02 27.64 17.79 50.05 39.78 50.06 21.98 0.02 39.82-22.38 39.84-50.01 0.01-27.64-17.8-50.05-39.78-50.07-21.99-0.01-39.82 22.38-39.84 50.02z"/>
									</g>
								</g>
								<g id="&lt;Group&gt;" style="opacity: .2">
									<g id="&lt;Group&gt;">
										<path id="&lt;Path&gt;" class="s5" d="m2292.01 1277.42c-0.01 18.7 9.85 33.87 22.03 33.88 12.17 0 22.05-15.15 22.06-33.85 0.01-18.71-9.85-33.88-22.02-33.88-12.18-0.01-22.06 15.15-22.07 33.85z"/>
									</g>
								</g>
							</g>
						</g>
						<g id="&lt;Group&gt;">
							<path id="&lt;Path&gt;" class="s3" d="m2491.98 1023.65c-51.1 23.02-124.67 5.09-157.38-39.66-30.12 76.85-112.68 117.09-204.7 47.07-17.02 39.02-58.62 82.32-128.79 82.32-70.16 0-111.76-43.27-128.78-82.32-91.99 70.02-174.54 29.78-204.7-47.11-32.71 44.76-106.28 62.72-157.38 39.7 70.13-215.3 215.91-380.53 490.86-380.53 274.96 0 420.74 165.23 490.87 380.53z"/>
						</g>
						<g id="&lt;Group&gt;">
							<path id="&lt;Compound Path&gt;" fill-rule="evenodd" class="s1" d="m2001.12 1821.91c-168.65 0-404.1-49.86-512.64-190.4-60.97-78.95-76.74-177.62-46.86-293.31 10.43-201.77 54.44-364.61 130.82-484.02 95.86-149.84 240.09-225.82 428.68-225.82 188.59 0 332.82 75.98 428.68 225.82 76.38 119.4 120.39 282.25 130.83 484.02 29.87 115.69 14.1 214.36-46.87 293.31-108.54 140.54-343.99 190.4-512.64 190.4zm0-1164.03c-177.87 0-313.73 71.4-403.81 212.21-73.77 115.33-116.26 273.83-126.29 471.12q-0.08 1.51-0.46 2.98c-27.96 107.01-14.06 197.61 41.29 269.28 101.99 132.06 327.31 178.92 489.27 178.92 161.96 0 387.28-46.86 489.28-178.93 55.35-71.66 69.24-162.26 41.28-269.27q-0.38-1.47-0.46-2.98c-10.03-197.29-52.52-355.79-126.29-471.12-90.08-140.81-225.94-212.21-403.81-212.21z"/>
						</g>
						<g id="&lt;Group&gt;">
							<path id="&lt;Path&gt;" class="s5" d="m2514.55 945.03c-49.04 42.29-141.99 26.46-179.96-25.45-30.12 76.87-112.67 117.11-204.67 47.08-17.03 39.04-58.64 82.34-128.8 82.34-70.16 0-111.77-43.3-128.79-82.34-92.01 70.03-174.55 29.79-204.68-47.08-37.96 51.91-130.91 67.74-179.96 25.45 0 0 96.69-359.13 513.43-359.13 416.74 0 513.43 359.13 513.43 359.13z"/>
						</g>
						<g id="&lt;Group&gt;">
							<path id="&lt;Path&gt;" class="s5" d="m2514.55 945.03c-49.04 42.29-141.99 26.46-179.96-25.45-30.12 76.87-112.67 117.11-204.67 47.08-17.03 39.04-58.64 82.34-128.8 82.34-70.16 0-111.77-43.3-128.79-82.34-92.01 70.03-174.55 29.79-204.68-47.08-37.96 51.91-130.91 67.74-179.96 25.45 0 0 96.69-359.13 513.43-359.13 416.74 0 513.43 359.13 513.43 359.13z"/>
						</g>
						<g id="&lt;Group&gt;">
							<path id="&lt;Path&gt;" class="s6" d="m2514.55 945.03c-49.06 42.3-141.98 26.46-179.95-25.44-30.12 76.86-112.68 117.1-204.7 47.07-17.02 39.03-58.62 82.33-128.79 82.33-70.16 0-111.76-43.27-128.78-82.33-91.99 70.03-174.54 29.79-204.7-47.1-37.93 51.93-130.89 67.77-179.95 25.47 78.24 13.58 162.54-41.15 188.9-97.91 29.31 83.87 134.69 101.29 221.26 43.08 9.08 34.61 41.38 76.88 103.27 76.88v-0.03c61.94 0 94.23-42.24 103.28-76.85 86.6 58.21 191.98 40.79 221.29-43.05 26.33 56.73 110.63 111.46 188.87 97.88z"/>
						</g>
						<g id="&lt;Group&gt;">
							<path id="&lt;Path&gt;" class="s1" d="m2514.55 945.03c-2.84 3.09-5.73 6.3-8.85 9.35-3.36 2.65-6.73 5.54-10.33 8.12-3.77 2.18-7.55 4.62-11.53 6.64-4.05 1.75-8.13 3.78-12.35 5.33-16.97 6.2-35.43 8.66-53.89 7.93-18.61-0.51-36.59-6.95-53.03-15.9-16.45-9-31.71-21.3-43.09-37.34l28.24-3.66c-8.63 21.18-21.61 40.9-38.74 56.8-17 15.96-38.59 27.63-61.8 32.48-23.22 4.92-47.42 2.53-69.06-4.72-21.77-7.22-41.29-18.64-59.1-31.71l22.35-5.82c-12.1 27.38-31.93 51.18-57.32 67.38-12.65 8.09-26.58 14.16-40.99 18.05-14.42 3.91-29.25 5.65-43.94 5.8-14.69-0.15-29.51-1.89-43.93-5.8-14.41-3.89-28.35-9.96-41-18.05-25.38-16.21-45.22-39.99-57.35-67.37l22.39 5.83c-17.8 13.07-37.31 24.53-59.09 31.74-21.65 7.23-45.86 9.62-69.09 4.68-23.2-4.85-44.78-16.55-61.76-32.53-17.08-15.96-29.77-35.8-38.32-56.93l27.4 3.55c-11.41 15.9-26.62 28.11-43.01 37.05-16.4 8.82-34.25 15.47-52.83 15.69-18.39 0.59-36.73-1.6-53.66-7.69-16.87-5.96-32.35-15.75-43.18-28.9 14.6 8.72 30.64 12.91 46.4 13.88 15.8 0.88 31.43-1 46.07-5.47 14.46-4.83 28.85-8.8 41.87-15.86 12.96-6.95 24.45-16.21 32.9-27.31l17.42-22.91 9.97 26.47c6.64 17.6 16.75 33.79 29.89 46.54 13.08 12.76 29.27 21.96 46.87 25.58 17.56 3.77 36.24 2.16 54-3.73 17.83-5.85 34.62-15.71 50.34-27.26l14.9-10.94 7.49 16.77c9.8 21.94 26.04 41.36 46.27 54.24 20.24 13.06 44.42 19.03 69.04 19.21 24.62-0.18 48.8-6.15 69.04-19.21 20.22-12.88 36.47-32.29 46.3-54.23l7.49-16.74 14.86 10.92c15.72 11.55 32.49 21.45 50.33 27.29 17.77 5.87 36.47 7.48 54.03 3.69 17.6-3.62 33.77-12.85 46.83-25.62 13.09-12.81 22.91-29.13 29.47-46.69l10.12-27.09 18.11 23.43c8.48 10.96 19.91 20.13 32.82 27.02 12.98 6.93 27.24 11.1 41.68 15.65 14.56 4.32 30.08 6.48 45.84 5.71 3.94-0.17 7.81-0.81 11.83-1.21 3.93-0.65 7.76-1.73 11.77-2.6 3.87-1.13 7.66-2.61 11.63-3.95z"/>
						</g>
						<g id="&lt;Group&gt;">
							<g id="&lt;Group&gt;">
								<path id="&lt;Path&gt;" class="s1" d="m2083.91 1410.34c0.11 45.81-83.37 66.59-83.37 66.59 0 0-83.57-20.38-83.68-66.19-0.06-23.51 83.48-23.71 83.48-23.71 0 0 83.51-0.2 83.57 23.31z"/>
							</g>
							<g id="&lt;Group&gt;" style="opacity: .5">
								<g id="&lt;Group&gt;">
									<g id="&lt;Group&gt;">
										<path id="&lt;Path&gt;" class="s5" d="m2036.73 1405.86c0.03 11.87-20.66 17.25-35.91 17.28-15.25 0.04-35.96-5.25-35.99-17.11-0.01-6.09 35.94-6.17 35.94-6.17 0 0 35.95-0.09 35.96 6z"/>
									</g>
								</g>
							</g>
							<g id="&lt;Group&gt;">
								<path id="&lt;Path&gt;" class="s1" d="m2132.6 1488.32c-1.37 8.81-5.15 16.63-10.05 23.14-4.89 6.56-10.8 12.14-17.39 16.78-13.19 9.13-29.45 14.81-46.75 14.25-8.59-0.27-17.3-2.19-25.31-5.66-8.04-3.43-15.29-8.34-21.56-13.97-6.34-5.62-11.62-12.02-16.1-18.69-4.65-6.64-8.18-13.63-11.58-20.67l-12.5-25.88 29.14 1.48h0.01l27.69 1.41-10.93 22.91c-3.36 7.05-6.86 14.06-11.49 20.73-4.44 6.68-9.68 13.11-16 18.76-6.24 5.66-13.47 10.6-21.48 14.08-8 3.5-16.7 5.47-25.29 5.79-17.29 0.63-33.58-4.97-46.82-14.04-6.61-4.61-12.55-10.16-17.47-16.7-4.93-6.48-8.75-14.28-10.17-23.09-0.78-4.85 2.55-9.42 7.44-10.19 4.56-0.73 8.85 2.08 10.06 6.39l0.16 0.57c2.67 9.67 11.79 18.67 21.93 24.16 10.32 5.54 22.13 7.88 32.65 6.25 10.57-1.57 19.65-7.1 26.8-15.29 3.63-4.03 6.73-8.8 9.39-13.97 2.77-5.06 4.85-10.76 6.86-16.44l16.76 24.32-0.01 0.01 16.64-24.41c2.04 5.66 4.14 11.36 6.94 16.4 2.68 5.17 5.81 9.91 9.46 13.93 7.18 8.16 16.29 13.65 26.87 15.16 10.53 1.59 22.33-0.82 32.61-6.4 10.12-5.54 19.2-14.59 21.83-24.26l0.14-0.54c1.29-4.75 6.21-7.56 11-6.28 4.44 1.19 7.2 5.54 6.52 9.96z"/>
							</g>
						</g>
					</g>
					<g id="&lt;Group&gt;">
						<path id="&lt;Path&gt;" class="s11" d=""/>
					</g>
					<g id="&lt;Group&gt;">
						<path id="&lt;Path&gt;" class="s1" d="m864.17 1471.55c-0.52 2.16-1.15 4.28-1.8 6.38-0.58 2.1-1.1 4.22-1.74 6.29-1.2 4.15-2.27 8.29-3.11 12.43-2.16 8.22-3.02 16.45-3.56 24.79-0.54 8.38 0.56 16.73 2.08 25.36 1.74 8.57 4.55 17.19 7.93 25.99l0.17 0.44c0.89 2.33-0.27 4.94-2.6 5.83-1.81 0.7-3.8 0.14-5.01-1.24-6.49-7.43-12.36-15.72-16.77-24.97-4.5-9.2-7.78-19.25-9.54-29.65-1.87-10.41-1.62-21.08-0.62-31.44 0.55-5.19 1.37-10.31 2.35-15.38 1.1-5.02 2.49-9.92 3.92-14.78 2.34-7.91 10.65-12.42 18.56-10.08 7.65 2.26 12.13 10.11 10.29 17.79z"/>
					</g>
				</g>
			</g>
		</g>
	</g>
</svg>